# xmcd
#
# Track frame offsets:
#       182
#       14645
#       25315
#       36432
#       42680
#       46782
#       78240
#       90565
#       102280
#       110475
#       133857
#       141292
#       148010
#       163072
#       165815
#       169577
#       192100
#       208482
#       221182
#       237487
#
# Disc length: 3952 seconds
#
# Revision: 2
# Processed by: cddbd v1.5.2PL0 Copyright (c) Steve Scherf et al.
# Submitted via: FreeDbEdit v0.1
#
DISCID=260f6e14
DTITLE=Igor Stravinsky - The Firebird - Scherzo Fantastique
DYEAR=1989
DGENRE=
TTITLE0=Introduction
TTITLE1=Kashchei's Enchanted Garden
TTITLE2=Appearance of the Firebird persued by Ivan Tsarevich
TTITLE3=Dance of the Firebird
TTITLE4=Ivan Tsarevich captures the Firebird
TTITLE5=Supplication of the Firebird
TTITLE6=Appearance of Thirteen Enchanted Princesses
TTITLE7=The Princesses' Game with the Golden Apples
TTITLE8=Sudden appearance of Ivan Tsarevich
TTITLE9=The Princesses' Khorovod (Round Dance)
TTITLE10=Daybreak--Ivan Tsarevich enters Kashchei's Palace
TTITLE11=Magic Carillon, Appearance of Kaschei's Guardian Monsters and Ca
TTITLE11=pture of Ivan Tsarevich
TTITLE12=Arrival of Kashchei the Immortal--His dialogue with Ivan Tsarevi
TTITLE12=ch--Intercession of the Princesses
TTITLE13=Appearance of the Firebird
TTITLE14=Dance of Kashchei's retinue under the Firebird's Spell
TTITLE15=Infernal Dance of all Kashchei's Subjects
TTITLE16=Lullaby (Firebird)
TTITLE17=Kashchei's Awakening--Death of Kaschei--Profound Darkness
TTITLE18=Disappearance of the Palace and Dissolution of Kashchei's Enchan
TTITLE18=tments--Animation of the Petrified Warriors--General Thanksgivi
TTITLE19=Scherzo Fantastique for Grand Orchestra, Op.3
EXTD=Philharmonia Orchestra\nEliahu Inbal
EXTT0=L'Oiseau de Feu - Der Feuervogel - The Firebird\nBallet (1910) -
EXTT0=Complete Version\n
EXTT1=L'Oiseau de Feu - Der Feuervogel - The Firebird\nBallet (1910) -
EXTT1=Complete Version\n
EXTT2=L'Oiseau de Feu - Der Feuervogel - The Firebird\nBallet (1910) -
EXTT2=Complete Version\n
EXTT3=L'Oiseau de Feu - Der Feuervogel - The Firebird\nBallet (1910) -
EXTT3=Complete Version\n
EXTT4=L'Oiseau de Feu - Der Feuervogel - The Firebird\nBallet (1910) -
EXTT4=Complete Version\n
EXTT5=L'Oiseau de Feu - Der Feuervogel - The Firebird\nBallet (1910) -
EXTT5=Complete Version\n
EXTT6=L'Oiseau de Feu - Der Feuervogel - The Firebird\nBallet (1910) -
EXTT6=Complete Version\n
EXTT7=L'Oiseau de Feu - Der Feuervogel - The Firebird\nBallet (1910) -
EXTT7=Complete Version\n
EXTT8=L'Oiseau de Feu - Der Feuervogel - The Firebird\nBallet (1910) -
EXTT8=Complete Version\n
EXTT9=L'Oiseau de Feu - Der Feuervogel - The Firebird\nBallet (1910) -
EXTT9=Complete Version\n
EXTT10=L'Oiseau de Feu - Der Feuervogel - The Firebird\nBallet (1910) 
EXTT10=Complete Version\n
EXTT11=L'Oiseau de Feu - Der Feuervogel - The Firebird\nBallet (1910) 
EXTT11=Complete Version\n
EXTT12=L'Oiseau de Feu - Der Feuervogel - The Firebird\nBallet (1910) 
EXTT12=Complete Version\n
EXTT13=L'Oiseau de Feu - Der Feuervogel - The Firebird\nBallet (1910) 
EXTT13=Complete Version\n
EXTT14=L'Oiseau de Feu - Der Feuervogel - The Firebird\nBallet (1910) 
EXTT14=Complete Version\n
EXTT15=L'Oiseau de Feu - Der Feuervogel - The Firebird\nBallet (1910) 
EXTT15=Complete Version\n
EXTT16=L'Oiseau de Feu - Der Feuervogel - The Firebird\nBallet (1910) 
EXTT16=Complete Version\n
EXTT17=L'Oiseau de Feu - Der Feuervogel - The Firebird\nBallet (1910) 
EXTT17=Complete Version\n
EXTT18=L'Oiseau de Feu - Der Feuervogel - The Firebird\nBallet (1910) 
EXTT18=Complete Version\n
EXTT19=Scherzo fantastique, op. 3 (1908) pour grand orchestra\n
PLAYORDER=
